<?xml version="1.0" encoding="UTF-8" standalone="no"?>
<!DOCTYPE svg PUBLIC "-//W3C//DTD SVG 1.1//EN" "http://www.w3.org/Graphics/SVG/1.1/DTD/svg11.dtd">
<svg width="100%" height="100%" viewBox="0 0 180 34" version="1.1" xmlns="http://www.w3.org/2000/svg" xmlns:xlink="http://www.w3.org/1999/xlink" xml:space="preserve" xmlns:serif="http://www.serif.com/" style="fill-rule:evenodd;clip-rule:evenodd;stroke-linejoin:round;stroke-miterlimit:2;">
    <g transform="matrix(1,0,0,1,0,2)">
        <g transform="matrix(1,0,0,1,-4,0)">
            <path d="M35.034,15.517C35.034,24.087 28.087,31.034 19.517,31.034C10.947,31.034 4,24.087 4,15.517C4,6.947 10.947,0 19.517,0C28.087,0 35.034,6.947 35.034,15.517" style="fill:white;fill-opacity:0.5;"/>
            <path d="M18.436,0.037C18.793,0.012 19.154,0 19.517,0C28.087,0 35.034,6.947 35.034,15.517C35.034,24.087 28.087,31.034 19.517,31.034C10.947,31.034 4,24.087 4,15.517C4,15.253 4.007,14.99 4.02,14.728C4.401,22.086 10.267,27.931 17.448,27.931C24.875,27.931 30.897,21.678 30.897,13.966C30.897,6.598 25.402,0.562 18.436,0.037Z" style="fill:white;"/>
            <path d="M20.034,24.828C13.464,24.828 8.138,19.27 8.138,12.414C8.138,5.558 13.464,-0 20.034,-0C26.605,-0 31.931,5.558 31.931,12.414C31.931,19.27 26.605,24.828 20.034,24.828ZM20.034,24.828C26.033,24.828 30.897,19.733 30.897,13.448C30.897,7.164 26.033,2.069 20.034,2.069C14.035,2.069 9.172,7.164 9.172,13.448C9.172,19.733 14.035,24.828 20.034,24.828Z" style="fill:white;"/>
            <path d="M18.425,4.195C18.784,4.157 19.148,4.138 19.517,4.138C25.23,4.138 29.862,8.769 29.862,14.483C29.862,20.196 25.23,24.828 19.517,24.828C13.804,24.828 9.172,20.196 9.172,14.483C9.172,14.114 9.192,13.749 9.229,13.39C9.713,17.501 13.208,20.69 17.448,20.69C22.019,20.69 25.724,16.984 25.724,12.414C25.724,8.174 22.535,4.678 18.425,4.195Z" style="fill:white;"/>
            <path d="M20.065,18.6C19.884,18.614 19.701,18.621 19.517,18.621C15.518,18.621 12.276,15.378 12.276,11.379C12.276,7.38 15.518,4.138 19.517,4.138C23.517,4.138 26.759,7.38 26.759,11.379C26.759,11.466 26.757,11.552 26.754,11.637C26.629,8.044 23.9,5.172 20.552,5.172C17.124,5.172 14.345,8.183 14.345,11.896C14.345,15.432 16.864,18.331 20.065,18.6Z" style="fill:white;"/>
            <path d="M24.69,12.931C24.69,16.073 22.374,18.621 19.517,18.621C16.661,18.621 14.345,16.073 14.345,12.931C14.345,9.789 16.661,7.241 19.517,7.241C22.374,7.241 24.69,9.789 24.69,12.931" style="fill:white;"/>
            <path d="M19.517,18.621C16.661,18.621 14.345,16.073 14.345,12.931C14.345,9.789 16.661,7.241 19.517,7.241C22.374,7.241 24.69,9.789 24.69,12.931C24.69,16.073 22.374,18.621 19.517,18.621ZM22.34,11.29C22.831,10.467 22.661,9.607 21.96,9.371C21.258,9.135 20.29,9.61 19.798,10.434C19.307,11.257 19.477,12.117 20.178,12.353C20.88,12.59 21.847,12.114 22.34,11.29Z" style="fill:white;"/>
        </g>
        <g transform="matrix(1,0,0,1,36.3448,7.24138)">
            <path d="M121.326,14.093C121.079,13.399 120.956,12.52 120.956,11.34C120.956,10.16 121.079,9.281 121.326,8.587C122.018,6.598 123.849,5.51 126.247,5.51C128.027,5.51 129.437,6.181 130.376,7.245C130.451,7.338 130.475,7.477 130.352,7.57L128.794,8.841C128.67,8.934 128.547,8.911 128.448,8.795C127.855,8.171 127.236,7.824 126.247,7.824C125.184,7.824 124.368,8.31 124.021,9.281C123.824,9.836 123.774,10.484 123.774,11.34C123.774,12.196 123.824,12.867 124.021,13.422C124.368,14.37 125.184,14.856 126.247,14.856C127.236,14.856 127.855,14.509 128.448,13.885C128.547,13.769 128.67,13.769 128.794,13.862L130.352,15.134C130.475,15.226 130.451,15.342 130.376,15.458C129.437,16.499 128.027,17.17 126.247,17.17C123.849,17.17 122.018,16.082 121.326,14.093" style="fill:white;"/>
            <path d="M140.031,16.915C139.858,16.915 139.735,16.846 139.635,16.684L136.619,12.011L135.012,13.746L135.012,16.684C135.012,16.823 134.913,16.915 134.765,16.915L132.489,16.915C132.341,16.915 132.242,16.823 132.242,16.684L132.242,1.416C132.242,1.277 132.341,1.185 132.489,1.185L134.765,1.185C134.913,1.185 135.012,1.277 135.012,1.416L135.012,10.484L139.092,5.996C139.24,5.834 139.364,5.765 139.561,5.765L142.084,5.765C142.232,5.765 142.281,5.903 142.182,5.996L138.399,10.068L142.751,16.684C142.826,16.776 142.776,16.915 142.628,16.915L140.031,16.915Z" style="fill:white;"/>
            <path d="M7.448,14.509L10.959,14.509C12.591,14.509 13.506,13.63 13.506,12.312C13.506,11.016 12.591,10.137 10.959,10.137L7.448,10.137C7.349,10.137 7.299,10.183 7.299,10.276L7.299,14.37C7.299,14.463 7.349,14.509 7.448,14.509ZM10.811,7.731C12.294,7.731 13.209,6.899 13.209,5.672C13.209,4.423 12.294,3.59 10.811,3.59L7.448,3.59C7.349,3.59 7.299,3.637 7.299,3.729L7.299,7.592C7.299,7.685 7.349,7.731 7.448,7.731L10.811,7.731ZM4.382,1.416C4.382,1.277 4.481,1.185 4.628,1.185L10.885,1.185C14.446,1.185 16.127,2.85 16.127,5.372C16.127,7.153 15.237,8.171 14.173,8.703L14.173,8.749C15.212,9.119 16.424,10.368 16.424,12.288C16.424,15.411 14.322,16.915 10.637,16.915L4.628,16.915C4.481,16.915 4.382,16.823 4.382,16.684L4.382,1.416Z" style="fill:white;"/>
            <path d="M18.475,16.915C18.326,16.915 18.227,16.823 18.227,16.684L18.227,5.996C18.227,5.857 18.326,5.765 18.475,5.765L20.75,5.765C20.898,5.765 20.997,5.857 20.997,5.996L20.997,6.945L21.022,6.945C21.59,6.089 22.604,5.51 24.113,5.51C25.052,5.51 25.992,5.857 26.61,6.436C26.734,6.551 26.759,6.644 26.659,6.76L25.349,8.31C25.25,8.425 25.126,8.448 25.003,8.356C24.459,8.032 23.89,7.824 23.247,7.824C21.689,7.824 20.997,8.865 20.997,10.646L20.997,16.684C20.997,16.823 20.898,16.915 20.75,16.915L18.475,16.915Z" style="fill:white;"/>
            <path d="M34.262,13.399C34.46,12.82 34.51,12.288 34.51,11.34C34.51,10.392 34.46,9.883 34.262,9.281C33.916,8.356 33.15,7.824 32.037,7.824C30.924,7.824 30.133,8.356 29.787,9.281C29.589,9.883 29.539,10.392 29.539,11.34C29.539,12.288 29.589,12.82 29.787,13.399C30.133,14.324 30.924,14.856 32.037,14.856C33.15,14.856 33.916,14.324 34.262,13.399ZM27.116,14.093C26.844,13.306 26.721,12.566 26.721,11.34C26.721,10.114 26.844,9.374 27.116,8.587C27.784,6.644 29.614,5.51 32.037,5.51C34.436,5.51 36.265,6.644 36.933,8.587C37.205,9.374 37.329,10.114 37.329,11.34C37.329,12.566 37.205,13.306 36.933,14.093C36.265,16.036 34.436,17.17 32.037,17.17C29.614,17.17 27.784,16.036 27.116,14.093Z" style="fill:white;"/>
            <path d="M49.323,16.915C49.175,16.915 49.076,16.823 49.026,16.684L46.727,9.559L46.678,9.559L44.353,16.684C44.303,16.823 44.205,16.915 44.056,16.915L42.029,16.915C41.88,16.915 41.781,16.823 41.732,16.684L37.973,5.996C37.924,5.857 37.998,5.765 38.147,5.765L40.52,5.765C40.693,5.765 40.792,5.834 40.842,5.996L43.141,13.353L43.191,13.353L45.466,5.996C45.515,5.857 45.639,5.765 45.787,5.765L47.568,5.765C47.716,5.765 47.84,5.857 47.889,5.996L50.312,13.353L50.362,13.353L52.538,5.996C52.587,5.834 52.686,5.765 52.859,5.765L55.233,5.765C55.381,5.765 55.456,5.857 55.406,5.996L51.647,16.684C51.598,16.823 51.499,16.915 51.351,16.915L49.323,16.915Z" style="fill:white;"/>
            <path d="M55.894,15.411C55.795,15.319 55.795,15.18 55.894,15.088L57.303,13.7C57.402,13.607 57.551,13.607 57.65,13.7C58.515,14.44 59.9,14.972 61.136,14.972C62.595,14.972 63.337,14.417 63.337,13.653C63.337,12.982 62.917,12.566 61.359,12.427L60.073,12.312C57.65,12.08 56.413,10.924 56.413,9.026C56.413,6.875 58.07,5.51 61.037,5.51C62.892,5.51 64.45,6.089 65.513,6.875C65.637,6.968 65.637,7.106 65.563,7.199L64.351,8.564C64.252,8.68 64.128,8.68 64.005,8.61C63.263,8.124 62.076,7.685 60.889,7.685C59.702,7.685 59.084,8.171 59.084,8.841C59.084,9.49 59.504,9.883 61.037,10.022L62.323,10.137C64.821,10.368 66.008,11.571 66.008,13.399C66.008,15.62 64.277,17.17 61.012,17.17C58.565,17.17 56.883,16.268 55.894,15.411" style="fill:white;"/>
            <path d="M75.1,9.142C74.778,8.24 73.888,7.708 72.775,7.708C71.638,7.708 70.747,8.24 70.426,9.142C70.327,9.42 70.278,9.697 70.278,10.091C70.278,10.183 70.327,10.23 70.426,10.23L75.1,10.23C75.199,10.23 75.248,10.183 75.248,10.091C75.248,9.697 75.199,9.42 75.1,9.142ZM67.904,14.07C67.657,13.353 67.483,12.497 67.483,11.34C67.483,10.183 67.632,9.304 67.879,8.587C68.547,6.644 70.376,5.51 72.75,5.51C75.199,5.51 76.979,6.69 77.646,8.587C77.919,9.374 78.042,10.137 78.042,11.942C78.042,12.08 77.943,12.173 77.77,12.173L70.426,12.173C70.327,12.173 70.278,12.219 70.278,12.312C70.278,12.635 70.352,12.913 70.451,13.167C70.846,14.255 71.786,14.856 73.121,14.856C74.457,14.856 75.322,14.394 75.915,13.792C76.039,13.677 76.163,13.653 76.286,13.746L77.745,14.949C77.869,15.041 77.869,15.157 77.77,15.273C76.756,16.383 75.075,17.17 72.874,17.17C70.352,17.17 68.571,16.013 67.904,14.07Z" style="fill:white;"/>
            <path d="M80.093,16.915C79.945,16.915 79.846,16.823 79.846,16.684L79.846,5.996C79.846,5.857 79.945,5.765 80.093,5.765L82.368,5.765C82.517,5.765 82.615,5.857 82.615,5.996L82.615,6.945L82.64,6.945C83.209,6.089 84.222,5.51 85.731,5.51C86.671,5.51 87.61,5.857 88.228,6.436C88.352,6.551 88.377,6.644 88.278,6.76L86.967,8.31C86.869,8.425 86.745,8.448 86.621,8.356C86.077,8.032 85.509,7.824 84.866,7.824C83.308,7.824 82.615,8.865 82.615,10.646L82.615,16.684C82.615,16.823 82.517,16.915 82.368,16.915L80.093,16.915Z" style="fill:white;"/>
            <path d="M88.704,15.088C88.605,14.995 88.556,14.856 88.655,14.741L90.188,13.075C90.287,12.959 90.435,12.959 90.534,13.052C91.622,13.862 93.229,14.717 95.108,14.717C97.111,14.717 98.273,13.769 98.273,12.451C98.273,11.317 97.532,10.577 95.207,10.276L94.317,10.16C91.078,9.744 89.248,8.286 89.248,5.672C89.248,2.827 91.473,0.93 94.935,0.93C97.037,0.93 99.04,1.555 100.375,2.503C100.499,2.596 100.524,2.688 100.425,2.827L99.238,4.539C99.139,4.654 99.016,4.678 98.892,4.608C97.532,3.776 96.271,3.382 94.861,3.382C93.155,3.382 92.216,4.261 92.216,5.487C92.216,6.574 93.031,7.315 95.306,7.616L96.197,7.731C99.436,8.148 101.216,9.582 101.216,12.288C101.216,15.088 99.065,17.17 94.886,17.17C92.414,17.17 90.015,16.244 88.704,15.088" style="fill:white;"/>
            <path d="M106.34,17.112C103.941,17.112 103.027,16.025 103.027,13.85L103.027,7.974C103.027,7.882 102.977,7.835 102.878,7.835L102.086,7.835C101.939,7.835 101.839,7.743 101.839,7.604L101.839,6.054C101.839,5.915 101.939,5.823 102.086,5.823L102.878,5.823C102.977,5.823 103.027,5.776 103.027,5.684L103.027,2.63C103.027,2.491 103.126,2.399 103.274,2.399L105.549,2.399C105.697,2.399 105.796,2.491 105.796,2.63L105.796,5.684C105.796,5.776 105.845,5.823 105.944,5.823L107.527,5.823C107.675,5.823 107.774,5.915 107.774,6.054L107.774,7.604C107.774,7.743 107.675,7.835 107.527,7.835L105.944,7.835C105.845,7.835 105.796,7.882 105.796,7.974L105.796,13.758C105.796,14.544 106.142,14.798 106.909,14.798L107.527,14.798C107.675,14.798 107.774,14.891 107.774,15.03L107.774,16.88C107.774,17.019 107.675,17.112 107.527,17.112L106.34,17.112Z" style="fill:white;"/>
            <path d="M116.531,13.167L116.531,12.312C116.531,12.219 116.481,12.173 116.382,12.173L114.404,12.173C112.624,12.173 111.832,12.635 111.832,13.677C111.832,14.602 112.549,15.065 113.885,15.065C115.591,15.065 116.531,14.44 116.531,13.167ZM116.827,16.915C116.679,16.915 116.58,16.823 116.58,16.684L116.58,15.874L116.555,15.874C115.986,16.638 114.874,17.17 113.193,17.17C111.017,17.17 109.187,16.106 109.187,13.769C109.187,11.34 111.017,10.23 113.959,10.23L116.382,10.23C116.481,10.23 116.531,10.183 116.531,10.091L116.531,9.559C116.531,8.286 115.887,7.708 113.885,7.708C112.549,7.708 111.733,8.055 111.165,8.472C111.041,8.564 110.893,8.541 110.819,8.425L109.904,6.899C109.83,6.783 109.854,6.667 109.953,6.598C110.918,5.95 112.228,5.51 114.182,5.51C117.817,5.51 119.152,6.667 119.152,9.397L119.152,16.684C119.152,16.823 119.053,16.915 118.905,16.915L116.827,16.915Z" style="fill:white;"/>
        </g>
    </g>
</svg>
