<?xml version="1.0" encoding="UTF-8" standalone="no"?>
<!DOCTYPE svg PUBLIC "-//W3C//DTD SVG 1.1//EN" "http://www.w3.org/Graphics/SVG/1.1/DTD/svg11.dtd">
<svg width="100%" height="100%" viewBox="0 0 260 95" version="1.1" xmlns="http://www.w3.org/2000/svg" xmlns:xlink="http://www.w3.org/1999/xlink" xml:space="preserve" xmlns:serif="http://www.serif.com/" style="fill-rule:evenodd;clip-rule:evenodd;stroke-linejoin:round;stroke-miterlimit:2;">
    <g transform="matrix(1,0,0,1,0,23)">
        <path d="M97.8,1.8L90,1.8C89.2,1.8 88.6,2.4 88.6,3.2L88.6,7.5C87.6,6.5 86.2,5 85.3,4.3C81.7,1.6 77.5,0.4 72.3,0.6C67.1,0.8 62.2,2.6 58.4,5.8C53.2,10.2 50.3,16 49.8,23.1C49.3,29.8 50.9,35.7 54.6,40.9C58.8,46.8 65.8,50.2 72.7,50.2C74.4,50.2 76.2,50 77.8,49.5C82.2,48.3 85.5,46.3 88.1,43.2C88.2,43 88.4,42.8 88.6,42.5L88.6,47.5C88.6,48.3 89.2,48.9 90,48.9L97.7,48.9C98.5,48.9 99.1,48.3 99.1,47.5L99.1,3.2C99.2,2.4 98.6,1.8 97.8,1.8ZM60.7,28.2C59.9,23.7 60.8,19.7 63.3,16.4C66.1,12.6 69.7,10.7 74,10.7C74.6,10.7 75.3,10.7 75.9,10.8C82.6,11.6 88.1,17.6 88.4,24.3C88.7,29.8 86.6,34.3 82.2,37.5C80,39.1 74.5,40.6 69.8,39.1C65.1,37.5 61.6,33.5 60.7,28.2ZM259.4,2.4C259.1,2 258.7,1.8 258.2,1.8L249.8,1.8C249.2,1.8 248.7,2.1 248.5,2.7C247.1,6.2 239.7,24.2 235.9,33.3C235.9,33.3 235.9,33.2 235.8,33.2L233.5,27.7C230.1,19.4 226.7,11.1 223.2,2.8C223,2.3 222.5,1.9 221.9,1.9L213.5,1.9C213,1.9 212.6,2.1 212.3,2.5C212,2.9 212,3.4 212.2,3.8C215.1,10.9 228.9,43.8 230,46.6L220.6,69.7C220.4,70.1 220.5,70.6 220.7,71C221,71.4 221.4,71.6 221.9,71.6L230.2,71.6C230.8,71.6 231.3,71.3 231.5,70.7L237.5,56.2C246.1,35.5 256.8,9.8 259.3,3.8C259.7,3.3 259.7,2.8 259.4,2.4ZM207.4,14C205.8,8.2 202.6,4.3 197.8,2.2C192.8,0.1 187.6,-0 182.3,1.9C179.1,3.1 176.7,4.9 174.8,7.4L174.8,3.2C174.8,2.4 174.2,1.8 173.4,1.8L165.6,1.8C164.8,1.8 164.2,2.4 164.2,3.2L164.2,47.5C164.2,48.3 164.8,48.9 165.6,48.9L173.4,48.9C173.8,48.9 174.1,48.8 174.4,48.5C174.7,48.2 174.8,47.9 174.8,47.5C174.8,45 174.7,25.5 174.8,22.5C174.9,17.8 177.2,14.3 181.4,12.3C183.2,11.4 185.1,11 187.4,11C190.9,10.9 193.7,12.4 195.6,15.2C197,17.3 197.6,19.7 197.6,23L197.6,47.5C197.6,47.9 197.7,48.2 198,48.5C198.3,48.8 198.6,48.9 199,48.9L206.8,48.9C207.6,48.9 208.2,48.3 208.2,47.5L208.2,22.3C208.3,19 208,16.4 207.4,14ZM152.7,13.7C150.5,5.8 144.6,1.1 136.2,0.6C133.9,0.5 131.6,0.7 129.1,1.5C125.3,2.6 122.7,4.3 120.2,7.4L120.2,3.2C120.2,2.4 119.6,1.8 118.8,1.8L111,1.8C110.2,1.8 109.6,2.4 109.6,3.2L109.6,47.5C109.6,48.3 110.2,48.9 111,48.9L118.7,48.9C119.1,48.9 119.4,48.8 119.7,48.5C120,48.2 120.1,47.9 120.1,47.5C120.1,44.6 120,29.9 120.1,22.7C120.2,17.8 122.4,14.3 126.8,12.3C128.5,11.5 130.4,11.1 132.7,11.1C136.2,11.1 139,12.5 140.9,15.3C142.3,17.4 142.9,19.8 142.9,23.2L142.9,47.6C142.9,48 143,48.3 143.3,48.6C143.6,48.9 143.9,49 144.3,49L152.1,49C152.9,49 153.5,48.4 153.5,47.6L153.5,22.5C153.7,19.1 153.4,16.3 152.7,13.7ZM38.7,36.4L38.3,36C37.7,35.5 36.9,35.5 36.3,36C29.5,42.4 19.3,40.2 15.1,35.7C10,30.4 9.5,21.7 14.1,15.9C16.4,13 20.6,11 25,10.6C29.3,10.3 33.4,11.7 36.3,14.5C36.9,15 37.7,15.1 38.3,14.5L43.3,9.8C43.6,9.5 43.7,9.2 43.7,8.8C43.7,8.4 43.6,8.1 43.3,7.8C42.7,7.2 41.7,6.1 40.8,5.4C39,4.1 36.9,3 34.6,2.2C27.5,-0.3 20.4,0.1 13.4,3.5C8.2,6.1 4.3,10.2 2,15.8C0.4,19.8 -0.1,24.1 0.5,28.9C1.1,33.2 2.7,37.1 5.1,40.3C9.8,46.4 16.3,49.7 24.4,50.1L25.9,50.1C31.2,50.1 36,48.6 40.3,45.5C41.6,44.6 42.6,43.7 43.4,42.7C43.9,42.1 43.9,41.2 43.3,40.7C43.3,40.8 39.4,37.1 38.7,36.4Z" style="fill:white;fill-rule:nonzero;"/>
    </g>
</svg>
