<svg xmlns="http://www.w3.org/2000/svg" xmlns:xlink="http://www.w3.org/1999/xlink" viewBox="0,0,256,256" width="96px" height="96px" fill-rule="nonzero"><g fill="none" fill-rule="nonzero" stroke="none" stroke-width="1" stroke-linecap="butt" stroke-linejoin="miter" stroke-miterlimit="10" stroke-dasharray="" stroke-dashoffset="0" font-family="none" font-weight="none" font-size="none" text-anchor="none" style="mix-blend-mode: normal"><g transform="scale(5.33333,5.33333)"><path d="M13.001,4c-2.209,0 -4,1.791 -4,4c0,2.208 1.791,4 4,4c2.209,0 4,-1.792 4,-4c0,-2.209 -1.791,-4 -4,-4" fill="#ffb74d"></path><rect x="43" y="17" width="2" height="2" fill="#ffffff"></rect><rect x="41" y="15" width="2" height="2" fill="#ffffff"></rect><rect x="39" y="10" width="2" height="2" fill="#ffffff"></rect><rect x="41" y="8" width="2" height="2" fill="#ffffff"></rect><rect x="30" y="7" width="2" height="2" fill="#ffffff"></rect><rect x="34" y="11" width="2" height="2" fill="#ffffff"></rect><rect x="38" y="21" width="2" height="2" fill="#ffffff"></rect><rect x="39" y="30" width="2" height="2" fill="#ffffff"></rect><rect x="39" y="38" width="2" height="2" fill="#ffffff"></rect><rect x="41" y="32" width="2" height="2" fill="#ffffff"></rect><rect x="44" y="25" width="2" height="2" fill="#ffffff"></rect><rect x="45" y="36" width="2" height="2" fill="#ffffff"></rect><path d="M39,34v-2h-2h-2v-2h1.999v-2h-2v2h-1.999v-2h-2v-2h-2h-1v-2h-1v-2h-1v-2h-1v-2h-1v-2h-2v-1v-1h2v-1h2v1h2v1h2v2h2v2h1.999v2h2v-2h-1.999v-2h2v-2h-2v-2h-2v-2h-2v-1h-2h-2v-2h-2v2h-2v-1h-2v2h-1.999h-0.002v0.635l-1.216,0.149l-0.012,0.001c-0.271,0 -0.539,0.074 -0.771,0.215l-4.771,2.715c-0.114,0.068 -0.212,0.154 -0.3,0.251c-0.126,0.131 -0.236,0.276 -0.308,0.445l-2.621,6.589h-5.501c-0.828,0 -1.5,0.672 -1.5,1.5c0,0.828 0.672,1.5 1.5,1.5h6.49c0.6,0 1.142,-0.357 1.379,-0.91l2.533,-4.945l4.094,7.26l-5.216,6.01c-0.784,0.604 -1.008,1.69 -0.527,2.557l5,9c0.365,0.657 1.047,1.028 1.75,1.028c0.328,0 0.662,-0.083 0.97,-0.252c0.965,-0.537 1.314,-1.753 0.776,-2.72l-3.35,-6.028h0.602v-2h1v-1h2v-2h1v-2h2v-1h2v2h2v2h2v2h2v2h2v2h2v-2h1.999v2h-1.999v2h2v-2h1.999v-2h0.001h2v-2z" fill="#ffffff"></path><rect x="41" y="36" width="2" height="2" fill="#ffffff"></rect><rect x="41" y="28" width="2" height="2" fill="#ffffff"></rect><rect x="43" y="34" width="2" height="2" fill="#ffffff"></rect><rect x="41" y="40" width="2" height="2" fill="#ffffff"></rect><rect x="33" y="40" width="2" height="2" fill="#ffffff"></rect><rect x="36" y="17" width="2" height="2" fill="#ffffff"></rect><rect x="36" y="13" width="2" height="2" fill="#ffffff"></rect></g></g></svg>