<?xml version="1.0" encoding="UTF-8" standalone="no"?>
<!DOCTYPE svg PUBLIC "-//W3C//DTD SVG 1.1//EN" "http://www.w3.org/Graphics/SVG/1.1/DTD/svg11.dtd">
<svg width="100%" height="100%" viewBox="0 0 75 18" version="1.1" xmlns="http://www.w3.org/2000/svg" xmlns:xlink="http://www.w3.org/1999/xlink" xml:space="preserve" xmlns:serif="http://www.serif.com/" style="fill-rule:evenodd;clip-rule:evenodd;stroke-linejoin:round;stroke-miterlimit:2;">
    <rect x="0" y="0" width="9" height="18" style="fill:white;fill-rule:nonzero;"/>
    <path d="M13.5,9C15.985,9 18,6.985 18,4.5C18,2.015 15.985,0 13.5,0C11.015,0 9,2.015 9,4.5C9,6.985 11.015,9 13.5,9Z" style="fill:white;fill-rule:nonzero;"/>
    <path d="M13.5,18C15.985,18 18,15.985 18,13.5C18,11.015 15.985,9 13.5,9C11.015,9 9,11.015 9,13.5C9,15.985 11.015,18 13.5,18Z" style="fill:white;fill-rule:nonzero;"/>
    <path d="M31.042,4.273L28.932,4.273L28.932,13L31.042,13L31.042,4.273ZM40.216,7.435C40.003,5.347 38.447,4.153 36.338,4.153C34.011,4.153 32.2,5.751 32.2,8.636C32.2,11.509 33.969,13.119 36.338,13.119C38.733,13.119 40.058,11.492 40.216,9.945L38.085,9.932C37.936,10.771 37.305,11.27 36.381,11.27C35.136,11.27 34.352,10.371 34.352,8.636C34.352,6.97 35.119,6.003 36.393,6.003C37.352,6.003 37.979,6.561 38.085,7.435L40.216,7.435ZM49.588,8.636C49.588,5.751 47.764,4.153 45.42,4.153C43.068,4.153 41.257,5.751 41.257,8.636C41.257,11.509 43.068,13.119 45.42,13.119C47.764,13.119 49.588,11.521 49.588,8.636ZM47.432,8.636C47.432,10.345 46.682,11.27 45.42,11.27C44.163,11.27 43.409,10.345 43.409,8.636C43.409,6.928 44.163,6.003 45.42,6.003C46.682,6.003 47.432,6.928 47.432,8.636ZM58.175,4.273L56.07,4.273L56.07,9.301L55.998,9.301L52.563,4.273L50.748,4.273L50.748,13L52.857,13L52.857,7.963L52.912,7.963L56.385,13L58.175,13L58.175,4.273ZM64.147,6.889L66.167,6.889C66.15,5.257 64.85,4.153 62.822,4.153C60.827,4.153 59.391,5.24 59.404,6.864C59.4,8.189 60.329,8.935 61.837,9.28L62.749,9.493C63.708,9.714 64.138,9.974 64.147,10.464C64.138,10.997 63.64,11.368 62.792,11.368C61.858,11.368 61.245,10.933 61.198,10.094L59.178,10.094C59.204,12.135 60.623,13.111 62.817,13.111C64.99,13.111 66.278,12.126 66.286,10.469C66.278,9.075 65.336,8.223 63.614,7.844L62.864,7.673C62.072,7.503 61.569,7.239 61.586,6.719C61.59,6.241 61.999,5.896 62.817,5.896C63.64,5.896 64.091,6.267 64.147,6.889ZM70.671,13.119C72.713,13.119 74.196,12.058 74.196,10.639C74.196,9.557 73.322,8.679 72.235,8.509L72.235,8.44C73.181,8.261 73.872,7.477 73.872,6.514C73.872,5.155 72.517,4.153 70.671,4.153C68.826,4.153 67.471,5.151 67.471,6.514C67.471,7.477 68.144,8.261 69.108,8.44L69.108,8.509C68.004,8.679 67.147,9.557 67.147,10.639C67.147,12.058 68.63,13.119 70.671,13.119ZM70.671,11.624C69.896,11.624 69.359,11.138 69.359,10.469C69.359,9.787 69.913,9.297 70.671,9.297C71.43,9.297 71.984,9.791 71.984,10.469C71.984,11.142 71.443,11.624 70.671,11.624ZM70.671,7.81C70.007,7.81 69.529,7.362 69.529,6.744C69.529,6.131 70.002,5.7 70.671,5.7C71.34,5.7 71.813,6.135 71.813,6.744C71.813,7.366 71.332,7.81 70.671,7.81Z" style="fill:white;fill-rule:nonzero;"/>
</svg>
