<?xml version="1.0" encoding="UTF-8" standalone="no"?>
<!DOCTYPE svg PUBLIC "-//W3C//DTD SVG 1.1//EN" "http://www.w3.org/Graphics/SVG/1.1/DTD/svg11.dtd">
<svg width="100%" height="100%" viewBox="0 0 368 64" version="1.1" xmlns="http://www.w3.org/2000/svg" xmlns:xlink="http://www.w3.org/1999/xlink" xml:space="preserve" xmlns:serif="http://www.serif.com/" style="fill-rule:evenodd;clip-rule:evenodd;stroke-linejoin:round;stroke-miterlimit:2;">
    <g id="XMLID_1456_">
        <g id="XMLID_1457_">
            <path id="XMLID_1472_" d="M85.4,48.1L85.4,15.9C85.4,15.1 86.1,14.4 86.9,14.4L92.5,14.4C93.3,14.4 94,15.1 94,15.9L94,40.7C94,41.5 94.7,42.2 95.5,42.2L109.4,42.2C110.2,42.2 110.9,42.9 110.9,43.7L110.9,48.1C110.9,48.9 110.2,49.6 109.4,49.6L86.9,49.6C86.1,49.6 85.4,48.9 85.4,48.1Z" style="fill:white;fill-rule:nonzero;"/>
            <path id="XMLID_1470_" d="M232.5,48.1L232.5,15.9C232.5,15.1 233.2,14.4 234,14.4L239.6,14.4C240.4,14.4 241.1,15.1 241.1,15.9L241.1,40.7C241.1,41.5 241.8,42.2 242.6,42.2L256.5,42.2C257.3,42.2 258,42.9 258,43.7L258,48.1C258,48.9 257.3,49.6 256.5,49.6L234,49.6C233.2,49.6 232.5,48.9 232.5,48.1Z" style="fill:white;fill-rule:nonzero;"/>
            <path id="XMLID_1467_" d="M132.2,13.5C121.2,13.5 113.1,20.6 113.1,31.9C113.1,43 121.2,50.6 132.2,50.6C143.2,50.6 151.4,43.1 151.4,31.9C151.3,20.6 143.2,13.5 132.2,13.5ZM132.2,42.8C126.3,42.8 122.2,38.2 122.2,31.9C122.2,25.7 126.3,21.2 132.2,21.2C138.2,21.2 142.3,25.8 142.3,31.9C142.3,38.2 138.1,42.8 132.2,42.8Z" style="fill:white;fill-rule:nonzero;"/>
            <path id="XMLID_1466_" d="M174.2,50.5C163.4,50.5 155.3,43 155.3,31.9C155.3,20.6 163.6,13.4 174.4,13.4C178.7,13.4 183.4,14.8 186.4,17.4C187,18 187.1,19 186.5,19.6L182.9,23.2C182.3,23.8 181.4,23.8 180.9,23.2C179.3,21.7 177,21 174.7,21C168.8,21 164.6,25.6 164.6,31.8C164.6,38.2 168.7,42.6 174.6,42.6C177.3,42.6 179.6,41.6 181.1,40.1C181.7,39.6 182.6,39.6 183.1,40.1L186.8,43.6C187.4,44.2 187.4,45.2 186.8,45.7C183.8,48.7 179.5,50.5 174.2,50.5Z" style="fill:white;fill-rule:nonzero;"/>
            <path id="XMLID_1463_" d="M212.6,14.6L206.3,14.6C205.7,14.6 205.2,15 204.9,15.5L191.4,47.5C191,48.5 191.7,49.6 192.8,49.6L198.8,49.6C199.4,49.6 200,49.2 200.2,48.6L202.1,43.7C202.3,43.1 202.9,42.7 203.5,42.7L215,42.7C215.6,42.7 216.2,43.1 216.4,43.6L218.4,48.6C218.6,49.2 219.2,49.5 219.8,49.5L226,49.5C227.1,49.5 227.8,48.4 227.4,47.4L214,15.4C213.7,15 213.2,14.6 212.6,14.6ZM205.6,34L207.9,27.7C208.4,26.4 210.2,26.4 210.7,27.7L213,34C213.3,35 212.6,36 211.6,36L207,36C205.9,36 205.2,34.9 205.6,34Z" style="fill:white;fill-rule:nonzero;"/>
            <path id="XMLID_1460_" d="M284.2,14.6L277.9,14.6C277.3,14.6 276.8,15 276.5,15.5L263,47.5C262.6,48.5 263.3,49.6 264.4,49.6L270.4,49.6C271,49.6 271.6,49.2 271.8,48.6L273.7,43.7C273.9,43.1 274.5,42.7 275.1,42.7L286.7,42.7C287.3,42.7 287.9,43.1 288.1,43.6L290.1,48.6C290.3,49.2 290.9,49.5 291.5,49.5L297.7,49.5C298.8,49.5 299.5,48.4 299.1,47.4L285.7,15.4C285.4,15 284.8,14.6 284.2,14.6ZM277.2,34L279.5,27.7C280,26.4 281.8,26.4 282.3,27.7L284.6,34C284.9,35 284.2,36 283.2,36L278.6,36C277.6,36 276.8,34.9 277.2,34Z" style="fill:white;fill-rule:nonzero;"/>
            <path id="XMLID_1459_" d="M303.6,48.1L303.6,44.3C303.6,42.9 304.1,41.6 304.9,40.6L319.3,22.8C319.7,22.3 319.3,21.6 318.7,21.6L305.4,21.6C304.6,21.6 303.9,20.9 303.9,20.1L303.9,15.9C303.9,15.1 304.6,14.4 305.4,14.4L329.4,14.4C330.2,14.4 330.9,15.1 330.9,15.9L330.9,19.1C330.9,20.5 330.4,21.8 329.6,22.8L314.9,41C314.5,41.5 314.8,42.2 315.5,42.2L329.9,42.2C330.7,42.2 331.4,42.9 331.4,43.7L331.4,48.1C331.4,48.9 330.7,49.6 329.9,49.6L305.2,49.6C304.3,49.6 303.6,48.9 303.6,48.1Z" style="fill:white;fill-rule:nonzero;"/>
            <path id="XMLID_1458_" d="M355.7,36.5L355.7,48.1C355.7,48.9 355,49.6 354.2,49.6L348.7,49.6C347.9,49.6 347.2,48.9 347.2,48.1L347.2,36.4C347.2,35.3 346.9,34.1 346.2,33.2L335.5,16.7C334.9,15.7 335.6,14.4 336.7,14.4L343.4,14.4C343.9,14.4 344.4,14.7 344.7,15.1L351.1,26.3C351.4,26.8 352.1,26.8 352.4,26.3L358.8,15.1C359.1,14.6 359.6,14.4 360.1,14.4L366.4,14.4C367.6,14.4 368.3,15.7 367.6,16.7L356.6,33.2C356,34.2 355.7,35.3 355.7,36.5Z" style="fill:white;fill-rule:nonzero;"/>
        </g>
        <g id="XMLID_571_">
            <path id="XMLID_573_" d="M45.1,1.8L44.7,2.8L41.5,10.4C41.8,9.5 41.2,8.6 40.2,8.6L14.2,8.6C13.2,8.6 12.6,9.6 13,10.5L19.2,25.4C19.4,25.9 19.9,26.2 20.4,26.2L32.8,26.2C33.8,26.2 34.4,27.2 34.1,28.1L33.7,29L30.5,36.6C30.8,35.7 30.2,34.8 29.2,34.8L25.1,34.8C24.1,34.8 23.5,35.8 23.9,36.7L34.4,61.8C34.8,62.9 34.1,64.1 32.9,64.1L26.4,64.1C25.7,64.1 25.2,63.7 24.9,63.1L0.2,3.8C-0.5,2 0.8,0 2.7,0L43.8,0C44.8,0 45.4,0.9 45.1,1.8Z" style="fill:white;fill-rule:nonzero;"/>
            <path id="XMLID_572_" d="M57.5,8.4L45.5,36.9C44.9,38.4 43.4,39.4 41.8,39.4L31.3,39.4C30.3,39.4 29.7,38.4 30.1,37.5L30.5,36.6L30.5,36.5L33.7,28.9C33.3,29.8 34,30.8 34.9,30.8L37.7,30.8C38.2,30.8 38.7,30.5 38.9,30L45.2,15.1C45.6,14.2 44.9,13.2 44,13.2L42.3,13.2C41.3,13.2 40.7,12.2 41.1,11.3L41.5,10.4L41.5,10.3L44.7,2.7C44.3,3.6 45,4.6 45.9,4.6L55,4.6C57,4.7 58.3,6.6 57.5,8.4Z" style="fill:white;fill-rule:nonzero;"/>
        </g>
    </g>
</svg>
