<?xml version="1.0" encoding="UTF-8" standalone="no"?>
<!DOCTYPE svg PUBLIC "-//W3C//DTD SVG 1.1//EN" "http://www.w3.org/Graphics/SVG/1.1/DTD/svg11.dtd">
<svg width="100%" height="100%" viewBox="0 0 199 78" version="1.1" xmlns="http://www.w3.org/2000/svg" xmlns:xlink="http://www.w3.org/1999/xlink" xml:space="preserve" xmlns:serif="http://www.serif.com/" style="fill-rule:evenodd;clip-rule:evenodd;stroke-linejoin:round;stroke-miterlimit:2;">
    <path d="M145.924,25.504L145.924,44.624C145.924,46.037 145.95,47.632 146.054,48.705L143.486,48.705L143.356,45.958L143.292,45.958C142.41,47.724 140.504,49.071 137.949,49.071C134.162,49.071 131.232,45.827 131.232,41.028C131.206,35.77 134.448,32.527 138.26,32.527C140.659,32.527 142.28,33.678 142.993,34.947L143.058,34.947L143.058,25.504L145.924,25.504ZM143.071,39.328C143.071,38.962 143.045,38.478 142.941,38.125C142.526,36.294 140.97,34.79 138.818,34.79C135.861,34.79 134.124,37.405 134.124,40.91C134.124,44.114 135.68,46.769 138.766,46.769C140.685,46.769 142.423,45.487 142.941,43.343C143.045,42.95 143.071,42.558 143.071,42.1L143.071,39.328ZM94.897,46.691C92.952,46.691 91.11,46.037 89.84,45.252L89.1,47.606C90.267,48.391 92.576,49.019 94.676,49.019C99.837,49.019 102.327,46.076 102.327,42.676C102.327,39.446 100.447,37.641 96.751,36.202C93.73,35.025 92.407,34.018 92.407,31.952C92.407,30.461 93.548,28.656 96.531,28.656C98.515,28.656 99.967,29.31 100.68,29.703L101.458,27.375C100.486,26.825 98.865,26.302 96.634,26.302C92.394,26.302 89.567,28.866 89.567,32.292C89.567,35.405 91.772,37.262 95.338,38.543C98.294,39.681 99.461,40.858 99.461,42.924C99.461,45.148 97.775,46.691 94.897,46.691ZM45.75,31.219C45.75,34.463 45.841,37.628 45.945,40.282L46.321,48.731L51.119,48.731L49.952,26.694L43.468,26.694L41.16,34.018C40.408,36.464 39.669,39.38 39.085,41.93L38.955,41.93C38.475,39.341 37.827,36.594 37.114,34.044L34.974,26.694L28.387,26.694L26.986,48.731L31.551,48.731L31.966,40.361C32.096,37.615 32.225,34.214 32.329,31.232L32.394,31.232C32.938,34.149 33.652,37.248 34.365,39.838L36.699,48.365L40.563,48.365L43.222,39.759C44.064,37.17 44.972,34.031 45.685,31.219L45.75,31.219ZM68.184,48.718C67.989,47.841 67.925,46.364 67.925,44.859L67.938,44.859L67.938,39.275C67.938,35.509 66.291,32.37 61,32.37C58.108,32.37 55.943,33.181 54.84,33.809L55.748,36.974C56.786,36.346 58.51,35.796 60.131,35.796C62.556,35.796 63.01,37.013 63.01,37.863L63.01,38.059C57.395,38.059 53.699,40.021 53.699,44.18C53.699,46.73 55.605,49.084 58.821,49.084C60.702,49.084 62.323,48.404 63.36,47.122L63.464,47.122L63.749,48.718L68.184,48.718ZM58.562,43.669C58.562,41.786 60.572,41.158 63.165,41.158L63.178,41.158L63.178,42.885C63.178,43.186 63.14,43.473 63.075,43.735C62.737,44.755 61.7,45.566 60.507,45.566C59.405,45.566 58.562,44.951 58.562,43.669ZM83.745,48.286C82.863,48.705 81.216,49.045 79.336,49.045C74.214,49.045 70.933,45.88 70.933,40.871C70.933,36.228 74.11,32.396 80.01,32.396C81.307,32.396 82.734,32.632 83.771,33.024L82.993,36.712C82.409,36.45 81.541,36.215 80.244,36.215C77.65,36.215 75.965,38.085 75.99,40.662C75.99,43.604 77.936,45.134 80.335,45.134C81.502,45.134 82.409,44.938 83.161,44.611L83.745,48.286ZM109.459,29.114L109.459,32.88L113.544,32.88L113.544,35.077L109.459,35.077L109.459,43.604C109.459,45.566 110.004,46.678 111.599,46.678C112.351,46.678 112.896,46.573 113.259,46.481L113.388,48.639C112.844,48.875 111.962,49.032 110.86,49.032C109.537,49.032 108.461,48.613 107.774,47.828C106.97,46.978 106.671,45.579 106.671,43.709L106.671,35.077L104.233,35.077L104.233,32.88L106.671,32.88L106.671,29.964L109.459,29.114ZM125.202,46.73L125.435,48.718L125.435,48.705L128.029,48.705C127.834,47.632 127.769,46.285 127.769,44.912L127.769,39.001C127.769,35.823 126.602,32.527 121.804,32.527C119.82,32.527 117.94,33.09 116.643,33.94L117.291,35.836C118.394,35.117 119.924,34.659 121.376,34.659C124.579,34.659 124.942,37.013 124.942,38.321L124.942,38.648C118.873,38.622 115.502,40.714 115.502,44.533C115.502,46.835 117.123,49.084 120.3,49.084C122.53,49.084 124.216,47.972 125.098,46.73L125.202,46.73ZM118.381,44.193C118.381,41.133 121.908,40.57 125.02,40.636L125.02,43.382C125.02,43.67 124.968,44.01 124.864,44.298C124.424,45.631 123.127,46.939 121.078,46.939C119.613,46.939 118.381,46.05 118.381,44.193ZM152.018,30.212C153.159,30.212 153.859,29.428 153.834,28.447C153.834,27.427 153.159,26.642 152.096,26.642C151.059,26.642 150.306,27.427 150.306,28.447C150.306,29.428 151.007,30.212 152.018,30.212ZM150.657,32.894L150.657,48.718L153.509,48.718L153.509,32.894L150.657,32.894ZM171.379,44.402C171.379,46.037 171.405,47.475 171.508,48.718L168.98,48.718L168.824,46.128L168.759,46.128C168.007,47.41 166.36,49.071 163.572,49.071C161.108,49.071 158.152,47.698 158.152,42.139L158.152,32.88L161.005,32.88L161.005,41.642C161.005,44.65 161.912,46.677 164.506,46.677C166.425,46.677 167.748,45.344 168.266,44.062C168.422,43.643 168.526,43.12 168.526,42.597L168.526,32.893L171.379,32.893L171.379,44.402ZM175.982,32.88C176.086,34.188 176.112,35.535 176.112,37.17L176.112,48.718L178.9,48.718L178.9,39.171C178.9,38.674 178.978,38.177 179.133,37.758C179.574,36.32 180.871,34.881 182.661,34.881C184.826,34.881 185.928,36.712 185.928,39.223L185.928,48.705L188.716,48.705L188.716,38.922C188.716,38.399 188.82,37.876 188.95,37.484C189.443,36.071 190.7,34.868 192.321,34.868C194.617,34.868 195.719,36.699 195.719,39.733L195.719,48.692L198.52,48.692L198.52,39.38C198.52,33.887 195.434,32.514 193.359,32.514C191.855,32.514 190.817,32.906 189.883,33.626C189.235,34.123 188.626,34.803 188.133,35.692L188.068,35.692C187.394,33.835 185.773,32.527 183.633,32.527C181.04,32.527 179.587,33.927 178.706,35.43L178.602,35.43L178.472,32.88L175.982,32.88Z" style="fill:white;"/>
    <path d="M40.757,0.081L36.997,0.081L36.997,19.044L40.757,19.044L40.757,0.081ZM40.887,58.252L37.127,58.252L37.127,77.215L40.887,77.215L40.887,58.252ZM31.128,56.684L34.696,57.881L28.758,75.874L25.19,74.676L31.128,56.684ZM28.921,55.564L25.878,53.335L14.832,68.68L17.875,70.909L28.921,55.564ZM22.066,48.542L24.254,51.626L8.962,62.659L6.774,59.574L22.066,48.542ZM21.005,46.366L19.84,42.76L1.962,48.635L3.127,52.241L21.005,46.366ZM19.492,36.672L19.492,40.465L0.689,40.465L0.689,36.672L19.492,36.672ZM19.777,34.394L20.937,30.786L3.05,24.937L1.89,28.545L19.777,34.394ZM24.19,25.562L21.966,28.62L6.803,17.405L9.027,14.347L24.19,25.562ZM28.802,1.361L25.228,2.541L31.08,20.562L34.653,19.382L28.802,1.361ZM14.888,8.457L17.919,6.212L29.049,21.497L26.017,23.741L14.888,8.457Z" style="fill:white;"/>
</svg>
