<?xml version="1.0" encoding="UTF-8" standalone="no"?>
<!DOCTYPE svg PUBLIC "-//W3C//DTD SVG 1.1//EN" "http://www.w3.org/Graphics/SVG/1.1/DTD/svg11.dtd">
<svg width="100%" height="100%" viewBox="0 0 192 71" version="1.1" xmlns="http://www.w3.org/2000/svg" xmlns:xlink="http://www.w3.org/1999/xlink" xml:space="preserve" xmlns:serif="http://www.serif.com/" style="fill-rule:evenodd;clip-rule:evenodd;stroke-linejoin:round;stroke-miterlimit:2;">
    <g transform="matrix(1,0,0,1,-4.35,-10.97)">
        <path d="M69.68,34.89C67.02,31.97 63.73,30.5 59.82,30.5C57.41,30.5 55.19,30.96 53.15,31.89C51.11,32.82 49.35,34.08 47.86,35.69C46.38,37.31 45.21,39.19 44.35,41.37C43.49,43.54 43.06,45.89 43.06,48.43C43.06,50.92 43.46,53.19 44.25,55.24C45.05,57.28 46.16,59.03 47.6,60.49C49.04,61.95 50.75,63.09 52.73,63.91C54.71,64.73 56.88,65.14 59.24,65.14C60.31,65.14 61.3,65.06 62.2,64.91C63.1,64.76 63.96,64.51 64.78,64.17C65.6,63.82 66.4,63.38 67.2,62.85C67.99,62.31 68.82,61.63 69.68,60.82L69.68,69.49L69.67,69.49L69.67,70.33L58.75,70.33L50.54,79.57L50.54,81.16L81.35,81.16L81.35,31.41L69.68,31.41L69.68,34.89ZM69.65,50.78C69.24,51.7 68.7,52.51 68.04,53.2C67.37,53.89 66.58,54.42 65.66,54.81C64.74,55.2 63.76,55.39 62.73,55.39C61.65,55.39 60.65,55.2 59.73,54.81C58.81,54.42 58.01,53.89 57.34,53.2C56.67,52.51 56.15,51.7 55.76,50.78C55.37,49.86 55.18,48.85 55.18,47.78C55.18,46.75 55.38,45.78 55.79,44.88C56.2,43.98 56.74,43.2 57.44,42.53C58.13,41.86 58.92,41.33 59.82,40.92C60.72,40.51 61.69,40.31 62.72,40.31C63.71,40.31 64.66,40.5 65.59,40.89C66.51,41.27 67.32,41.81 68.01,42.5C68.7,43.19 69.24,43.98 69.66,44.88C70.07,45.78 70.27,46.77 70.27,47.85C70.26,48.88 70.06,49.86 69.65,50.78Z" style="fill:white;fill-rule:nonzero;"/>
    </g>
    <g transform="matrix(1,0,0,1,-4.35,-10.97)">
        <path d="M37.12,35.43C36.5,34.7 35.8,34.07 35.05,33.51C34.38,33.02 33.67,32.59 32.9,32.24C32.53,32.07 32.14,31.93 31.73,31.8C31.14,31.61 30.5,31.48 29.84,31.37L21.52,31.37L16.02,37.64L16.02,31.5L4.35,31.5L4.35,64.58L16.02,64.58L16.02,42.26L26.98,42.26L27.89,42.24L27.89,64.57L39.56,64.57L39.56,43.88C39.56,42.12 39.39,40.55 39.05,39.17C38.71,37.8 38.07,36.56 37.12,35.43Z" style="fill:white;fill-rule:nonzero;"/>
    </g>
    <g transform="matrix(1,0,0,1,-4.35,-10.97)">
        <path d="M115.67,31.41L102.94,31.41L97.88,37.11L97.88,31.41L86.2,31.41L86.2,64.49L97.9,64.49L97.91,42.35L106.4,42.35L115.67,31.87L115.67,31.41Z" style="fill:white;fill-rule:nonzero;"/>
    </g>
    <g transform="matrix(1,0,0,1,-4.35,-10.97)">
        <path d="M178.73,46.69L194.69,31.97L194.69,31.41L179.31,31.41L167.07,43.34L167.07,10.97L155.4,10.97L155.4,64.48L167.07,64.48L167.07,51.01L179.9,64.48L195.65,64.48L195.65,63.85L178.73,46.69Z" style="fill:white;fill-rule:nonzero;"/>
    </g>
    <g transform="matrix(1,0,0,1,-4.35,-10.97)">
        <path d="M146.28,35.18C144.5,33.61 142.39,32.39 139.96,31.51C137.53,30.63 134.9,30.19 132.06,30.19C129.18,30.19 126.52,30.64 124.1,31.54C121.67,32.44 119.58,33.68 117.81,35.24C116.05,36.81 114.67,38.66 113.68,40.79C112.69,42.92 112.2,45.21 112.2,47.66C112.2,50.37 112.69,52.83 113.68,55.04C114.67,57.25 116.03,59.15 117.78,60.74C119.52,62.33 121.59,63.56 124,64.42C126.41,65.28 129.03,65.71 131.87,65.71C134.75,65.71 137.42,65.28 139.9,64.42C142.37,63.56 144.49,62.35 146.25,60.77C148.01,59.2 149.4,57.33 150.41,55.16C151.42,52.99 151.93,50.6 151.93,47.97C151.93,45.35 151.43,42.95 150.45,40.78C149.45,38.62 148.06,36.75 146.28,35.18ZM138.99,50.84C138.58,51.76 138.04,52.57 137.38,53.26C136.71,53.95 135.92,54.48 135,54.87C134.07,55.26 133.1,55.45 132.07,55.45C131.04,55.45 130.06,55.26 129.13,54.87C128.21,54.48 127.41,53.95 126.75,53.26C126.08,52.57 125.55,51.76 125.14,50.84C124.73,49.92 124.53,48.9 124.53,47.78C124.53,46.75 124.73,45.78 125.14,44.88C125.55,43.98 126.08,43.19 126.75,42.5C127.42,41.81 128.21,41.27 129.13,40.89C130.06,40.5 131.03,40.31 132.07,40.31C133.1,40.31 134.08,40.5 135,40.89C135.92,41.27 136.72,41.81 137.38,42.5C138.05,43.19 138.58,44 138.99,44.92C139.4,45.84 139.6,46.82 139.6,47.85C139.6,48.92 139.4,49.92 138.99,50.84Z" style="fill:white;fill-rule:nonzero;"/>
    </g>
</svg>
