<?xml version="1.0" encoding="UTF-8" standalone="no"?>
<!DOCTYPE svg PUBLIC "-//W3C//DTD SVG 1.1//EN" "http://www.w3.org/Graphics/SVG/1.1/DTD/svg11.dtd">
<svg width="100%" height="100%" viewBox="0 0 240 72" version="1.1" xmlns="http://www.w3.org/2000/svg" xmlns:xlink="http://www.w3.org/1999/xlink" xml:space="preserve" xmlns:serif="http://www.serif.com/" style="fill-rule:evenodd;clip-rule:evenodd;stroke-linejoin:round;stroke-miterlimit:2;">
    <path d="M36,0C55.869,0 72,16.131 72,36C72,55.869 55.869,72 36,72C16.131,72 0,55.869 0,36C0,16.131 16.131,0 36,0ZM17.52,17.584C16.881,18.927 16.561,20.398 16.561,21.996C16.561,24.298 17.265,26.472 18.544,28.199C20.526,25.13 23.275,22.636 26.536,20.973C23.787,19.439 20.718,18.288 17.52,17.584ZM55.439,50.835L55.375,39.453C55.375,28.455 46.295,19.631 35.233,20.014C24.682,20.398 16.497,29.35 16.497,39.901L16.497,50.835C16.497,52.817 18.096,54.416 20.078,54.416C22.06,54.416 23.659,52.817 23.659,50.835L23.659,47.957L48.277,47.957L48.277,50.835C48.277,52.817 49.876,54.416 51.858,54.416C53.84,54.416 55.439,52.817 55.439,50.835ZM53.456,28.199C54.671,26.409 55.439,24.298 55.439,21.996C55.439,20.398 55.119,18.927 54.48,17.584C51.282,18.288 48.277,19.439 45.464,20.973C48.725,22.636 51.474,25.13 53.456,28.199Z" style="fill:white;"/>
    <path d="M44.504,35.616C44.249,35.488 43.993,35.552 43.865,35.744C43.609,36.128 43.29,36.384 42.842,36.639L42.842,36.32C42.842,35.425 42.522,34.593 42.011,33.954C41.627,33.378 40.988,33.059 40.22,33.059C39.005,33.059 37.982,34.082 37.982,35.297C37.982,35.808 38.174,36.32 38.494,36.703C38.877,37.151 39.325,37.535 39.901,37.79C39.517,37.982 39.133,38.11 38.686,38.11C38.174,38.11 37.79,38.558 37.79,39.005C37.79,39.517 38.174,39.901 38.686,39.901L39.133,39.901C40.54,39.901 41.819,39.069 42.394,37.918C43.353,37.663 44.121,37.023 44.632,36.192C44.824,36.064 44.76,35.744 44.504,35.616ZM40.86,36.831C40.284,36.639 39.773,36.32 39.453,35.808C39.325,35.68 39.261,35.488 39.261,35.297C39.261,34.785 39.645,34.401 40.156,34.401C40.604,34.401 41.052,34.785 41.052,35.233C41.052,35.361 41.115,35.488 41.115,35.68C41.179,36.064 41.052,36.512 40.86,36.831Z" style="fill:white;fill-rule:nonzero;"/>
    <g transform="matrix(1,0,0,1,-4.4375,-0.609375)">
        <g transform="matrix(40,0,0,40,247.609,47)">
        </g>
        <text x="88px" y="47px" style="font-family:'OpenSans', 'Open Sans', sans-serif;font-size:40px;fill:white;">porkbun</text>
    </g>
</svg>
